PathFileType	4	(X/Y/Z)	D:\TRACE\v60_Jaco2_6-2-23\ArmBody_Mo2_DMP_1-platform.trc
DataRate	CameraRate	NumFrames	NumMarkers	Units	OrigDataRate	OrigDataStartFrame	OrigNumFrames
100.00	100.00	      31	5	mm	100.00	1	      6551
Frame#	Time	Left_Front			Right_Front			Left_Aft			Right_Aft			Post			
		X1	Y1	Z1	X2	Y2	Z2	X3	Y3	Z3	X4	Y4	Z4	X5	Y5	Z5	

1	0.000				780.03717	9.67718	-632.67560	-719.72400	6.98067	480.87061	697.94092	9.04553	583.35107	2.83554	1307.55457	-966.02216	
2	0.010				780.06189	9.67069	-632.68152	-719.69989	6.98032	480.85361	697.95471	9.04875	583.36499	2.86884	1307.51550	-965.99316	
3	0.020				780.08691	9.63190	-632.68750	-719.68311	6.96121	480.85666	697.97571	9.03192	583.34137	2.90199	1307.51709	-965.96729	
4	0.030				779.99396	9.69198	-632.74890	-719.72296	6.98765	480.82819	697.94897	9.03830	583.37091	2.86410	1307.56421	-966.01990	
5	0.040				779.98248	9.68327	-632.76892	-719.72150	6.99561	480.83896	697.96307	9.03721	583.37238	2.94792	1307.53210	-966.03113	
6	0.050				779.93567	9.69257	-632.78894	-719.70770	6.97752	480.87549	697.95996	9.03706	583.34943	2.98997	1307.46265	-966.01526	
7	0.060				780.04364	9.70374	-632.72119	-719.73877	6.97958	480.83978	697.98621	9.05049	583.35925	2.86096	1307.53125	-966.02295	
8	0.070				780.01038	9.67136	-632.70050	-719.69495	6.94879	480.83774	697.95038	9.02065	583.35138	2.91228	1307.54883	-966.02649	
9	0.080				779.95428	9.64883	-632.77313	-719.70746	6.97102	480.85486	697.95685	9.05734	583.35858	2.96630	1307.53003	-966.02448	
10	0.090				779.95679	9.68180	-632.79004	-719.71381	6.99383	480.83810	697.96857	9.04707	583.32489	2.89426	1307.55029	-965.98151	
11	0.100				779.98804	9.67510	-632.74951	-719.72168	6.99434	480.84634	697.96631	9.06288	583.33698	2.92913	1307.55859	-965.98358	
12	0.110				779.97241	9.67389	-632.76715	-719.74780	7.00092	480.84735	697.96289	9.03295	583.34375	2.91169	1307.53528	-965.99524	
13	0.120				779.95563	9.65448	-632.82660	-719.74152	6.99539	480.85327	697.92194	9.04155	583.35809	2.88464	1307.57751	-965.97534	
14	0.130				779.98895	9.66444	-632.74835	-719.72162	6.97988	480.84293	697.96423	9.04087	583.36115	2.84545	1307.52808	-966.02710	
15	0.140				780.01099	9.71138	-632.75635	-719.73212	7.00573	480.83890	697.92511	9.03433	583.34540	2.88739	1307.55273	-966.04663	
16	0.150				779.99518	9.69176	-632.74786	-719.70612	7.00034	480.83716	697.96106	9.04608	583.35345	2.96950	1307.53491	-966.03033	
17	0.160				779.96368	9.65478	-632.73822	-719.71991	6.99321	480.82962	697.93329	9.03987	583.36285	2.88977	1307.57983	-966.01819	
18	0.170				780.05804	9.65101	-632.72540	-719.74274	6.97682	480.84106	697.95239	9.05056	583.38452	2.92586	1307.54688	-965.99854	
19	0.180				779.96411	9.68834	-632.76807	-719.73883	6.98687	480.84253	697.93262	9.02663	583.35883	2.90672	1307.53833	-965.95715	
20	0.190				780.02814	9.66810	-632.69177	-719.59766	6.83455	480.80542	697.95624	9.05461	583.33923	2.88647	1307.51270	-966.00800	
21	0.200				780.00372	9.71421	-632.74677	-719.74579	6.97186	480.86954	697.91351	9.06485	583.36212	2.85061	1307.53113	-966.00122	
22	0.210				780.00995	9.69237	-632.68365	-719.55359	6.84165	480.82733	697.95782	9.02608	583.35541	2.90233	1307.56384	-965.97406	
23	0.220				780.02045	9.70979	-632.76849	-719.73163	6.98614	480.85187	697.91919	9.05840	583.35498	2.90671	1307.59082	-965.98291	
24	0.230				780.00830	9.63871	-632.75488	-719.71295	6.97774	480.84134	697.96936	9.03342	583.36353	2.88828	1307.53882	-965.99011	
25	0.240				780.03870	9.63498	-632.69916	-719.71692	6.96964	480.87015	697.93347	9.06075	583.37390	2.93531	1307.50562	-966.00555	
26	0.250				780.07465	9.67950	-632.72003	-719.72559	6.98388	480.85635	697.94702	9.01324	583.36731	2.92582	1307.53784	-965.93610	
27	0.260				779.99097	9.70916	-632.70996	-719.72809	7.00045	480.83691	697.89960	9.04810	583.36261	2.91493	1307.57263	-966.00897	
28	0.270				779.99951	9.64888	-632.70538	-719.74597	6.98610	480.82074	697.92419	9.04359	583.37354	2.92134	1307.60242	-965.95660	
29	0.280				779.94727	9.66783	-632.80591	-719.70337	7.00007	480.84460	697.92712	9.05416	583.35785	2.85122	1307.59961	-966.01501	
30	0.290				780.03363	9.74527	-632.76190	-719.71021	6.98940	480.85822	697.92688	9.05787	583.33478	2.91588	1307.57190	-966.01654	
31	0.300				780.03345	9.69177	-632.69989	-719.71118	6.97680	480.84967	697.93823	9.04648	583.36273	2.80315	1307.54089	-966.00079	
